<svg xmlns="http://www.w3.org/2000/svg" viewBox="0 0 1600 1000" width="1600" height="1000"><defs><filter id="g" x="0" y="0" width="100%" height="100%"><feTurbulence type="fractalNoise" baseFrequency="0.9" numOctaves="2" stitchTiles="stitch"/><feColorMatrix type="saturate" values="0"/><feComponentTransfer><feFuncA type="linear" slope="0.06"/></feComponentTransfer></filter>
<linearGradient id="n" x1="0" y1="0" x2="1" y2="1"><stop offset="0" stop-color="#1B4C8C"/><stop offset="1" stop-color="#071E3D"/></linearGradient>
<linearGradient id="s" x1="0" y1="0" x2="1" y2="0"><stop offset="0" stop-color="#5BA9E6"/><stop offset="1" stop-color="#A7D0F2"/></linearGradient>
<linearGradient id="p" x1="0" y1="0" x2="0" y2="1"><stop offset="0" stop-color="#FBFAF7"/><stop offset="1" stop-color="#E9EDF2"/></linearGradient>
</defs><rect width="1600" height="1000" fill="#0B2D5B"/><rect width="1600" height="1000" fill="url(#n)"/><path d="M230 520 l38 38 l72 -84" stroke="#5BA9E6" stroke-width="14" fill="none" stroke-linecap="round" stroke-linejoin="round" opacity="0.55"/><path d="M400 520 l38 38 l72 -84" stroke="#5BA9E6" stroke-width="14" fill="none" stroke-linecap="round" stroke-linejoin="round" opacity="0.6100000000000001"/><path d="M570 520 l38 38 l72 -84" stroke="#5BA9E6" stroke-width="14" fill="none" stroke-linecap="round" stroke-linejoin="round" opacity="0.67"/><path d="M740 520 l38 38 l72 -84" stroke="#5BA9E6" stroke-width="14" fill="none" stroke-linecap="round" stroke-linejoin="round" opacity="0.73"/><path d="M910 520 l38 38 l72 -84" stroke="#5BA9E6" stroke-width="14" fill="none" stroke-linecap="round" stroke-linejoin="round" opacity="0.79"/><path d="M1080 520 l38 38 l72 -84" stroke="#5BA9E6" stroke-width="14" fill="none" stroke-linecap="round" stroke-linejoin="round" opacity="0.8500000000000001"/><path d="M1250 520 l38 38 l72 -84" stroke="#5BA9E6" stroke-width="14" fill="none" stroke-linecap="round" stroke-linejoin="round" opacity="0.91"/><rect width="1600" height="1000" filter="url(#g)" opacity="0.5"/></svg>