<svg xmlns="http://www.w3.org/2000/svg" viewBox="0 0 1600 1000" width="1600" height="1000"><defs><filter id="g" x="0" y="0" width="100%" height="100%"><feTurbulence type="fractalNoise" baseFrequency="0.9" numOctaves="2" stitchTiles="stitch"/><feColorMatrix type="saturate" values="0"/><feComponentTransfer><feFuncA type="linear" slope="0.06"/></feComponentTransfer></filter>
<linearGradient id="n" x1="0" y1="0" x2="1" y2="1"><stop offset="0" stop-color="#1B4C8C"/><stop offset="1" stop-color="#071E3D"/></linearGradient>
<linearGradient id="s" x1="0" y1="0" x2="1" y2="0"><stop offset="0" stop-color="#5BA9E6"/><stop offset="1" stop-color="#A7D0F2"/></linearGradient>
<linearGradient id="p" x1="0" y1="0" x2="0" y2="1"><stop offset="0" stop-color="#FBFAF7"/><stop offset="1" stop-color="#E9EDF2"/></linearGradient>
</defs><rect width="1600" height="1000" fill="#F8F9FB"/><rect x="220" y="230" width="60" height="22" rx="3" fill="#0B2D5B" opacity="0.7"/><rect x="350" y="230" width="73" height="22" rx="3" fill="#0B2D5B" opacity="0.7"/><rect x="480" y="230" width="86" height="22" rx="3" fill="#0B2D5B" opacity="0.7"/><rect x="610" y="230" width="99" height="22" rx="3" fill="#0B2D5B" opacity="0.7"/><rect x="740" y="230" width="62" height="22" rx="3" fill="#0B2D5B" opacity="0.7"/><rect x="870" y="230" width="75" height="22" rx="3" fill="#0B2D5B" opacity="0.7"/><rect x="1000" y="230" width="88" height="22" rx="3" fill="#0B2D5B" opacity="0.7"/><rect x="1130" y="230" width="101" height="22" rx="3" fill="#0B2D5B" opacity="0.7"/><rect x="1260" y="230" width="64" height="22" rx="3" fill="#0B2D5B" opacity="0.7"/><rect x="220" y="330" width="67" height="22" rx="3" fill="#0B2D5B" opacity="0.7"/><rect x="350" y="330" width="80" height="22" rx="3" fill="#0B2D5B" opacity="0.7"/><rect x="480" y="330" width="93" height="22" rx="3" fill="#0B2D5B" opacity="0.7"/><rect x="610" y="330" width="106" height="22" rx="3" fill="#0B2D5B" opacity="0.7"/><rect x="740" y="330" width="69" height="22" rx="3" fill="#0B2D5B" opacity="0.7"/><rect x="870" y="330" width="82" height="22" rx="3" fill="#0B2D5B" opacity="0.7"/><rect x="1000" y="330" width="95" height="22" rx="3" fill="#0B2D5B" opacity="0.7"/><rect x="1130" y="330" width="108" height="22" rx="3" fill="#0B2D5B" opacity="0.7"/><rect x="1260" y="330" width="71" height="22" rx="3" fill="#0B2D5B" opacity="0.7"/><rect x="220" y="430" width="74" height="22" rx="3" fill="#0B2D5B" opacity="0.7"/><rect x="350" y="430" width="87" height="22" rx="3" fill="#0B2D5B" opacity="0.7"/><rect x="480" y="430" width="100" height="22" rx="3" fill="#0B2D5B" opacity="0.7"/><rect x="610" y="430" width="63" height="22" rx="3" fill="#5BA9E6" opacity="1"/><rect x="740" y="430" width="76" height="22" rx="3" fill="#0B2D5B" opacity="0.7"/><rect x="870" y="430" width="89" height="22" rx="3" fill="#0B2D5B" opacity="0.7"/><rect x="1000" y="430" width="102" height="22" rx="3" fill="#0B2D5B" opacity="0.7"/><rect x="1130" y="430" width="65" height="22" rx="3" fill="#0B2D5B" opacity="0.7"/><rect x="1260" y="430" width="78" height="22" rx="3" fill="#0B2D5B" opacity="0.7"/><rect x="220" y="530" width="81" height="22" rx="3" fill="#0B2D5B" opacity="0.7"/><rect x="350" y="530" width="94" height="22" rx="3" fill="#0B2D5B" opacity="0.7"/><rect x="480" y="530" width="107" height="22" rx="3" fill="#0B2D5B" opacity="0.7"/><rect x="610" y="530" width="70" height="22" rx="3" fill="#0B2D5B" opacity="0.7"/><rect x="740" y="530" width="83" height="22" rx="3" fill="#0B2D5B" opacity="0.7"/><rect x="870" y="530" width="96" height="22" rx="3" fill="#0B2D5B" opacity="0.7"/><rect x="1000" y="530" width="109" height="22" rx="3" fill="#0B2D5B" opacity="0.7"/><rect x="1130" y="530" width="72" height="22" rx="3" fill="#0B2D5B" opacity="0.7"/><rect x="1260" y="530" width="85" height="22" rx="3" fill="#0B2D5B" opacity="0.7"/><rect x="220" y="630" width="88" height="22" rx="3" fill="#0B2D5B" opacity="0.7"/><rect x="350" y="630" width="101" height="22" rx="3" fill="#0B2D5B" opacity="0.7"/><rect x="480" y="630" width="64" height="22" rx="3" fill="#0B2D5B" opacity="0.7"/><rect x="610" y="630" width="77" height="22" rx="3" fill="#0B2D5B" opacity="0.7"/><rect x="740" y="630" width="90" height="22" rx="3" fill="#0B2D5B" opacity="0.7"/><rect x="870" y="630" width="103" height="22" rx="3" fill="#0B2D5B" opacity="0.7"/><rect x="1000" y="630" width="66" height="22" rx="3" fill="#0B2D5B" opacity="0.7"/><rect x="1130" y="630" width="79" height="22" rx="3" fill="#0B2D5B" opacity="0.7"/><rect x="1260" y="630" width="92" height="22" rx="3" fill="#0B2D5B" opacity="0.7"/><rect x="220" y="730" width="95" height="22" rx="3" fill="#0B2D5B" opacity="0.7"/><rect x="350" y="730" width="108" height="22" rx="3" fill="#0B2D5B" opacity="0.7"/><rect x="480" y="730" width="71" height="22" rx="3" fill="#0B2D5B" opacity="0.7"/><rect x="610" y="730" width="84" height="22" rx="3" fill="#0B2D5B" opacity="0.7"/><rect x="740" y="730" width="97" height="22" rx="3" fill="#0B2D5B" opacity="0.7"/><rect x="870" y="730" width="60" height="22" rx="3" fill="#0B2D5B" opacity="0.7"/><rect x="1000" y="730" width="73" height="22" rx="3" fill="#0B2D5B" opacity="0.7"/><rect x="1130" y="730" width="86" height="22" rx="3" fill="#0B2D5B" opacity="0.7"/><rect x="1260" y="730" width="99" height="22" rx="3" fill="#0B2D5B" opacity="0.7"/><rect width="1600" height="1000" filter="url(#g)" opacity="0.5"/></svg>