<svg xmlns="http://www.w3.org/2000/svg" viewBox="0 0 100 100" width="100" height="100" role="img" aria-label="NUVORA">
<rect width="100" height="100" rx="50" fill="#0B2D5B"/>
<g transform="translate(14 14) scale(0.72)"><g>
  <path d="M7 15 H37 V18.5 Q31.5 19 30.5 22.5 V79.5 Q31.5 83 37 83.5 V87 H7 V83.5 Q12.5 83 13.5 79.5 V22.5 Q12.5 19 7 18.5 Z" fill="#FFFFFF"/>
  <path d="M63 15 H93 V18.5 Q87.5 19 86.5 22.5 V79.5 Q87.5 83 93 83.5 V87 H63 V83.5 Q68.5 83 69.5 79.5 V22.5 Q68.5 19 63 18.5 Z" fill="#FFFFFF"/>
  <path d="M6 30 C22 28 40 40 55 56 C68 70 84 86 98 99 C84 82 70 70 54 60 C38 50 20 42 6 30 Z" fill="#2F6EB5"/>
  <path d="M0 20 C16 6 36 14 52 34 C66 50 82 74 96 96 C82 76 66 62 50 52 C34 42 14 34 0 20 Z" fill="#5BA9E6"/>
</g></g>
</svg>